<svg width="200" height="32" viewBox="0 0 200 32" fill="none" xmlns="http://www.w3.org/2000/svg">
<path fill-rule="evenodd" clip-rule="evenodd" d="M117.665 13.02C117.776 13.1069 117.873 13.2126 117.951 13.3399C118.534 14.2856 117.588 15.9016 117.133 16.7569C117.015 16.9768 116.368 18.153 116.456 18.3591C116.509 18.4073 116.571 18.4268 116.643 18.4268C116.856 18.4268 117.148 18.263 117.332 18.1487C117.401 18.1147 117.495 18.0927 117.572 18.0927C117.746 18.0927 117.674 18.0718 117.826 18.1633C117.94 18.2328 118.013 18.3523 118.015 18.4875C118.015 18.651 117.909 18.7947 117.77 18.895C117.292 19.1781 116.871 19.3203 116.314 19.3203C116.05 19.3203 115.801 19.2799 115.576 19.2008C114.677 20.4079 113.218 22.0161 111.557 22.0165C109.66 22.0165 108.939 20.8442 108.939 19.0926C108.939 17.8714 109.885 16.1836 110.643 15.2639C112.023 13.5886 113.903 12.6241 116.117 12.6241C116.456 12.6241 116.832 12.6529 117.169 12.7632C117.152 12.7352 117.137 12.7061 117.124 12.6766L117.114 12.6543L117.109 12.6309C117.098 12.5787 117.084 12.5759 117.105 12.4893C117.174 11.0655 115.682 10.2987 114.487 9.92408C113.955 9.75701 113.381 9.63322 112.838 9.50197C111.075 9.08554 104.802 7.8398 105.317 5.24439C105.633 3.65812 107.148 3.2988 108.594 3.2988C110.616 3.2988 113.001 3.88939 114.978 4.33065C117.13 4.80951 119.67 5.42884 121.873 5.42884C123.674 5.42884 125.759 5.08158 127.068 3.75106C127.465 3.34775 127.929 2.65039 128.012 2.08037C128.028 1.94487 128.033 1.95942 128.103 1.89344C128.186 1.79589 128.333 1.73489 128.461 1.73524C128.672 1.73524 128.621 1.71112 128.767 1.864C128.917 2.01085 128.933 2.22155 128.853 2.40387C128.258 5.35931 125.56 7.05234 122.591 7.05234C120.471 7.05234 117.617 6.25318 115.544 5.73992C113.406 5.20998 110.451 4.38599 108.268 4.38599C107.633 4.38599 106.518 4.44594 106.388 5.24261C106.126 6.82604 109.966 7.25808 110.995 7.4482C112.567 7.73871 114.23 8.03454 115.714 8.63151C117.341 9.28595 118.621 10.8602 118.014 12.6408C117.988 12.8306 117.855 12.9859 117.665 13.0203V13.02ZM116.805 15.0188C116.98 14.7041 117.165 14.2295 117.022 13.9479C116.877 13.6656 116.363 13.634 116.089 13.634C114.975 13.634 113.519 15.3206 112.864 16.0609C112.062 16.9672 110.322 19.2792 110.939 20.6072C111.038 20.8218 111.213 20.9818 111.461 20.9818C112.838 20.9818 113.816 19.9478 114.588 18.95C114.655 18.8496 114.741 18.7659 114.841 18.7035C114.619 18.4346 114.489 18.0835 114.489 17.6589C114.489 17.0087 114.777 16.41 115.171 15.9006C115.51 15.4643 116.038 15.0028 116.633 15.0028C116.691 15.0028 116.749 15.0078 116.806 15.0188H116.805ZM73.5157 2.39039C72.5823 1.38869 71.3545 0.961618 69.9413 0.961618C68.3596 0.961618 66.8581 1.46069 65.4948 2.22616C63.9309 3.09945 62.5996 4.29164 61.5073 5.68777C61.3633 5.87896 61.1491 6.17231 60.8796 6.17231C60.6579 6.17231 60.482 6.04071 60.4075 5.83782L60.3976 5.81086L60.3948 5.78213C60.3902 5.74027 60.3923 5.7612 60.3923 5.72537C60.3923 5.21601 61.6906 4.00042 62.0144 3.68224C64.1529 1.58236 66.8003 0 69.9037 0C71.8301 0 73.5327 0.609037 74.7467 2.08569C76.3716 1.65224 78.1008 1.49546 79.779 1.49546C80.7131 1.49546 81.6564 1.54724 82.5813 1.6831C84.6868 1.99985 86.8622 2.4812 88.9521 2.90401C91.5636 1.79483 94.3805 1.07442 97.2378 1.07442C98.5135 1.07442 101.645 1.12195 101.645 2.98205C101.645 4.07384 100.292 4.66727 99.4118 4.96736C97.8308 5.50545 96.0548 5.67039 94.3904 5.67039C92.0257 5.67039 89.5415 5.31923 87.215 4.90174C83.5289 7.04489 81.4252 10.4058 79.5268 14.0469C79.4201 14.2462 79.3158 14.4477 79.2105 14.6492C78.9392 15.1617 78.6704 15.6753 78.4033 16.1897C77.6547 17.6443 76.927 18.911 76.0056 20.2742C72.9969 24.719 68.6802 26.5259 63.2659 26.5263C61.6789 26.5263 60.0426 26.2354 58.7014 25.3579C57.5594 24.6098 56.8534 23.5645 56.8534 22.196C56.8534 21.5476 57.0495 20.9509 57.4697 20.4483C57.868 19.9762 58.3826 19.6878 59.0131 19.6878C60.0288 19.6878 60.5615 20.2852 60.5615 21.2652C60.5615 21.7253 60.4153 22.1396 60.1079 22.4876C59.8029 22.8337 59.4064 23.0228 58.9397 23.0232C58.5074 23.0232 58.1744 22.8873 57.9673 22.6312C58.0843 23.4456 58.6372 24.06 59.3447 24.525C60.4178 25.2319 61.6935 25.4898 62.9702 25.4898C66.4978 25.4898 69.3643 23.7365 71.6475 21.1865C73.4075 19.2356 75.029 16.654 76.4064 14.4289C78.6683 10.7928 81.7855 6.78064 85.6678 4.62897C84.9847 4.4963 84.3038 4.35123 83.6261 4.20296C81.4061 3.73049 78.7502 3.20693 76.4734 3.20729C76.1397 3.20729 75.7886 3.22857 75.4453 3.2495C75.9237 4.3076 76.1269 5.4526 76.1269 6.6125C76.1269 9.56298 74.8885 12.1584 72.9419 14.3647C71.1666 16.3805 68.8678 18.0044 66.0548 18.0044C65.0331 18.0044 64.1273 17.6777 63.4216 16.9434C62.7045 16.1978 62.407 15.2557 62.407 14.2391C62.407 12.5475 63.1681 10.863 64.0642 9.45231C65.1799 7.69792 66.6293 6.19146 68.3085 4.94678C69.8775 3.78759 71.6301 2.91997 73.5143 2.39039H73.5157ZM103.037 21.4185C102.565 21.7246 102.033 21.9204 101.417 21.9207C100.77 21.9207 100.082 21.7618 99.7278 21.178C99.0383 20.0298 100.182 17.9529 100.757 16.9278C101.515 15.576 102.356 14.282 103.152 12.954C103.259 12.7962 103.259 12.7944 103.443 12.7944C103.464 12.7944 103.456 12.793 103.501 12.7986C103.75 12.8419 104.013 12.8558 104.266 12.8558C104.611 12.8558 104.987 12.8036 105.328 12.7511L105.346 12.7483L105.354 12.749C105.367 12.7472 105.368 12.7469 105.382 12.7469C105.555 12.7469 105.571 12.7568 105.668 12.9012C105.782 13.0771 105.784 13.0856 105.67 13.2591L102.617 18.1342C102.334 18.5854 101.365 20.1404 101.365 20.6686C101.365 20.9144 101.408 20.9644 101.659 20.9644C103.378 20.9644 105.778 16.5802 106.509 15.3518L107.932 12.9725C108.026 12.7784 108.049 12.7937 108.236 12.7937C108.265 12.7937 108.285 12.7951 108.298 12.8001C108.561 12.8462 108.837 12.855 109.103 12.855C109.423 12.855 109.762 12.8075 110.076 12.7511L110.098 12.7476L110.14 12.7461C110.317 12.7461 110.319 12.7582 110.424 12.8962C110.537 13.0799 110.537 13.086 110.429 13.2608C108.167 16.7863 106.187 20.5973 104.04 24.2065C101.994 27.3971 99.2827 31.8051 94.9309 31.8051C93.4421 31.8051 92.5981 30.6583 92.5981 29.2657C92.5981 27.7628 93.4861 26.3433 94.6206 25.3894C96.3626 23.922 98.7291 23.4041 100.975 23.4041C101.008 23.4041 101.032 23.4052 101.054 23.4123C101.206 23.4446 101.349 23.54 101.425 23.6925C101.496 23.889 101.501 23.8142 101.415 24.0362C101.326 24.2068 101.128 24.3377 100.919 24.3633C99.0504 24.3633 97.3134 25.2018 95.9934 26.4688C95.1497 27.279 94.0553 28.7549 94.0553 29.9709C94.0553 30.5586 94.3185 30.8722 94.9621 30.8725C96.1739 30.8725 97.1946 30.1376 97.9794 29.2934C99.3972 27.7674 100.71 25.4721 101.721 23.6624L103.036 21.4174L103.037 21.4185ZM94.9444 24.1476C94.8185 24.3711 94.5373 24.5513 94.2727 24.5513H74.8211C74.6527 24.5513 74.4998 24.4725 74.4034 24.3271C74.3097 24.1643 74.3317 23.9692 74.4257 23.8127C74.5573 23.5907 74.8325 23.4126 75.0974 23.4126H94.5469C94.7238 23.4126 94.8852 23.4857 94.9586 23.6318C95.0692 23.7954 95.0391 23.988 94.9444 24.1476ZM98.3996 21.3103L98.3908 21.333L98.3323 21.3745C97.9436 21.6511 97.4584 21.9285 96.9637 21.9285C96.3871 21.9285 95.8888 21.7217 95.5065 21.2968C95.1178 20.869 94.9533 20.3423 94.9533 19.773C94.9533 18.7837 95.6317 17.6309 96.1764 16.8349C96.3693 16.5522 96.5651 16.273 96.7641 15.9956C96.9673 15.709 98.0702 14.1909 98.1443 13.7691C98.0251 13.7432 97.9039 13.7294 97.7812 13.7294C96.5296 13.7294 95.4483 15.6505 94.865 16.5479C93.8113 18.1668 92.7687 19.718 91.1835 20.8942C90.1124 21.687 88.8492 21.9541 87.5293 21.9541C86.8583 21.9541 86.1898 21.7874 85.7585 21.2478C85.3326 20.708 85.327 20.0401 85.5007 19.4165L85.5078 19.3796C85.5138 19.359 85.5206 19.3388 85.5266 19.3182C85.294 19.3108 85.0734 19.2703 84.8719 19.1997C83.9722 20.4082 82.5171 22.0154 80.8521 22.0158C78.9566 22.0158 78.2367 20.841 78.2367 19.0919C78.2367 17.8703 79.1818 16.1833 79.9396 15.2632C81.3192 13.5875 83.1995 12.6234 85.4135 12.6234C86.072 12.6234 86.8728 12.7334 87.2487 13.3382C87.8332 14.2838 86.8867 15.8999 86.4327 16.7554C86.316 16.9754 85.6667 18.153 85.7497 18.3559C85.7933 18.3938 85.8387 18.4141 85.8926 18.4208C86.1781 17.8944 86.5632 17.4312 87.0218 17.0378C87.6051 16.5415 88.418 15.8882 89.2337 15.8882C89.3865 15.8882 89.5308 15.9187 89.6635 15.9956L89.6897 16.0109L89.6954 16.0162C89.7092 16.0265 89.722 16.0375 89.7333 16.0503L89.9224 16.2248L89.9355 16.2422C90.1174 16.4848 90.1919 16.7569 90.1096 17.0498C89.8628 17.949 88.8772 18.3225 88.0396 18.4921C87.642 18.573 87.2888 18.789 86.9888 19.0522C86.7143 19.293 86.4629 19.5942 86.3639 19.9471C86.3061 20.1638 86.2699 20.4544 86.4504 20.6296C86.7274 20.9059 87.0753 21.0251 87.4679 21.0251C88.5389 21.0251 89.8695 20.1755 90.6827 19.5466C91.4941 18.9124 92.3304 17.7103 92.9446 16.8796C93.9401 15.5402 95.8278 12.7479 97.7109 12.7483C98.4702 12.7483 99.3848 12.9033 99.7721 13.6297C100.47 14.9166 98.9667 17.1208 98.2386 18.1725C97.8992 18.667 96.8871 20.1787 96.7942 20.7704C96.7885 20.8105 96.7782 20.9073 96.8041 20.9378C96.8563 20.9949 97.0162 21.0017 97.085 21.0017C97.3006 21.0017 97.6006 20.8112 97.7758 20.6899C97.8244 20.6601 97.7748 20.6154 98.0251 20.6154C98.161 20.6154 98.2869 20.6782 98.3819 20.7711C98.5404 20.9229 98.5341 21.1492 98.4007 21.3103H98.3996ZM84.1371 18.7021C83.9162 18.4339 83.786 18.0828 83.786 17.6592C83.786 17.0066 84.0708 16.4096 84.4687 15.9009C84.8046 15.4654 85.3337 15.0032 85.9263 15.0032C85.9855 15.0032 86.0451 15.0085 86.1029 15.0198C86.2767 14.7049 86.4611 14.2299 86.3189 13.9476C86.1745 13.6659 85.6532 13.6343 85.3809 13.6343C84.2708 13.6343 82.8126 15.3231 82.1604 16.0613C81.361 16.9637 79.6102 19.2824 80.2336 20.6069C80.3326 20.819 80.5053 20.9822 80.7532 20.9822C82.131 20.9822 83.1083 19.9514 83.8892 18.9426C83.958 18.845 84.041 18.7627 84.1375 18.7024L84.1371 18.7021ZM105.478 24.5516C105.308 24.5516 105.149 24.4725 105.056 24.3218C104.968 24.1586 104.99 23.9656 105.083 23.8138C105.212 23.5928 105.487 23.4126 105.75 23.4126H131.386C131.56 23.4126 131.72 23.4893 131.804 23.6372C131.901 23.7979 131.876 23.9901 131.786 24.1511C131.652 24.3732 131.377 24.5513 131.111 24.5513H105.478V24.5516ZM130.99 10.1653C130.139 10.2894 129.175 10.6746 128.649 11.2642C128.159 11.8161 128.042 12.4957 128.141 13.2165C128.153 13.3765 128.052 13.5272 127.896 13.573L127.79 13.6042C127.74 13.6198 127.746 13.6191 127.689 13.6191C127.586 13.6191 127.565 13.6177 127.488 13.5517C127.359 13.4705 127.371 13.4506 127.348 13.3073L127.333 13.0643C127.168 10.3249 129.137 9.42358 131.471 8.96813C131.58 8.94862 131.69 8.9277 131.798 8.90322C131.93 8.69501 132.06 8.48644 132.184 8.27468C132.312 8.04199 132.489 7.80504 132.638 7.58618C134.203 5.29511 136.907 2.46949 139.976 2.46949C141.095 2.46949 142.257 2.90578 142.83 3.90039C143.328 4.76801 143.202 5.77645 142.694 6.61286C141.434 8.68968 137.672 9.20118 135.453 9.58462C134.911 9.67862 134.369 9.7712 133.831 9.87725L131.786 13.0452C132.157 12.8008 132.577 12.6277 133.026 12.6277C133.718 12.6277 134.288 12.9143 134.715 13.4481C135.16 14.0128 135.338 14.6921 135.338 15.3987C135.338 17.4134 133.756 19.0493 132.226 20.1919C131.078 21.0513 129.572 21.9204 128.083 21.9207C127.448 21.9207 126.91 21.6749 126.504 21.195C126.083 20.6899 125.925 20.0638 125.925 19.4207C125.925 19.2636 125.943 19.1011 125.974 18.9373C124.682 20.3384 122.869 21.92 121.103 21.9204C120.289 21.9204 119.585 21.6263 119.029 21.0428C118.453 20.4458 118.196 19.7045 118.195 18.8862C118.195 18.6716 118.221 18.4534 118.256 18.2328C118.358 17.8075 118.519 17.3123 118.711 16.9168C118.766 16.8094 118.826 16.7022 118.891 16.6001V16.5955L118.93 16.5359C120.485 14.1707 122.819 12.6277 125.765 12.6277C126.201 12.6277 126.604 12.7564 126.936 13.0342C127.269 13.3041 127.457 13.6624 127.457 14.0898C127.457 15.1106 126.673 15.7995 125.82 16.2507C124.477 16.9566 122.507 17.395 120.998 17.6947C120.575 18.3392 120.073 19.2491 120.073 20.0152C120.073 20.747 120.465 20.9889 121.178 20.9889C123.248 20.9889 126.436 17.3627 127.461 15.7601C128.584 13.8873 129.809 12.0151 130.99 10.1649L130.99 10.1653ZM61.1885 23.4414C61.1877 23.4403 61.197 23.4307 61.2073 23.4222L61.3541 23.2931L61.5137 23.4063C61.5275 23.4162 61.5427 23.4243 61.5562 23.4343L62.8992 24.343L61.3466 23.8628C61.3264 23.8582 61.309 23.856 61.2885 23.85L60.8356 23.7262L61.1885 23.4414ZM137.709 23.8865C139.952 22.5347 142.121 21.0776 144.303 19.6343C141.9 18.0015 139.427 16.4259 136.872 15.0347L136.76 14.9741L136.747 14.8492C136.66 14.0235 136.38 13.2293 135.857 12.5713C135.549 12.1822 135.172 11.8572 134.732 11.6217L134.5 11.4983L134.719 11.1624L134.823 11.1432C135.046 11.1021 135.27 11.0638 135.494 11.0247L135.563 11.013L135.628 11.0386C136.48 11.3766 137.322 11.7413 138.145 12.1421C140.239 10.8257 142.296 9.50942 144.479 8.33817C144.261 8.19877 144.043 8.05972 143.824 7.92138L143.611 7.78695L143.755 7.58264C143.811 7.50176 143.889 7.42656 143.939 7.34569C144.402 6.58484 144.641 5.71296 144.58 4.82547L144.552 4.42146L144.927 4.59066C146.136 5.13797 147.32 5.78851 148.473 6.44472C154.302 4.06498 160.231 3.4453 166.253 5.65124C169.165 6.71608 171.548 8.69926 173.078 11.3511C176.806 12.0679 180.583 13.7727 182.628 17.0676C184.431 19.9659 183.826 23.4843 181.821 26.1113C187.62 28.1328 193.508 28.7641 199.65 28.5563C200.119 28.5371 200.091 29.2448 199.719 29.2877C193.104 30.0734 186.675 29.5619 180.289 27.7192C178.109 29.591 175.328 30.5671 172.469 30.8449C169.964 31.09 167.422 30.786 165.019 30.0659C160.429 31.7636 155.356 31.9026 150.548 31.1914C145.641 30.4671 140.87 28.2012 136.581 25.8208C128.693 30.0305 119.25 33.7957 110.207 31.0818C107.834 30.3692 105.639 29.1767 103.841 27.4893L103.69 27.3478L103.807 27.1797C103.913 27.0282 104.016 26.8757 104.119 26.7235L104.279 26.4876L104.49 26.6809C106.221 28.2651 108.322 29.348 110.579 30.011C119.089 32.5067 128.035 29.3115 135.457 25.1919C134.783 24.8098 134.112 24.4218 133.443 24.0316L133.324 23.9624L133.323 23.8262C133.321 23.5343 133.251 23.2303 133.086 22.9742C132.922 22.6738 132.677 22.4223 132.378 22.2503L132.04 22.0555L132.366 21.842C132.587 21.6976 132.803 21.5444 133.015 21.3869L133.142 21.2929L133.282 21.3688C134.772 22.1832 136.24 23.0335 137.708 23.8855L137.709 23.8865ZM34.9831 30.0666C32.5798 30.7867 30.037 31.0907 27.5322 30.8456C24.6731 30.5678 21.8913 29.5917 19.7113 27.7188C13.325 29.5626 6.89682 30.0744 0.281386 29.2884C-0.0895658 29.2451 -0.12042 28.5378 0.349831 28.5566C6.49288 28.7649 12.3813 28.1331 18.1804 26.1123C16.1735 23.4857 15.5663 19.9673 17.3693 17.0683C19.4173 13.7734 23.1932 12.0687 26.9233 11.3518C28.4514 8.69997 30.8353 6.71679 33.7455 5.65195C39.7679 3.44601 45.6978 4.06569 51.5277 6.44543C52.7002 5.77681 53.9091 5.11243 55.1415 4.55909C56.9115 3.76737 58.7227 3.06611 60.5632 2.44892L61.5474 2.11833L60.8168 2.84548C60.0831 3.57512 58.9415 4.61584 58.9415 5.72466L58.9429 6.03716L59.0773 6.42557L58.8755 6.51567C58.1453 6.842 57.3523 7.20061 56.6697 7.61385C56.2838 7.8469 55.9019 8.09306 55.5213 8.33817C57.4711 9.38208 59.3298 10.5441 61.1963 11.7271L61.3488 11.8235L61.2988 11.9949C61.2243 12.252 61.1583 12.5127 61.1083 12.7759L61.0654 13.0008C60.9962 13.4095 60.9572 13.8241 60.9572 14.2388C60.9572 14.8077 61.0533 15.3618 61.2183 15.9059L61.2725 16.0847L61.1097 16.1808C59.2663 17.2691 57.4658 18.4325 55.6976 19.635C55.7636 19.6782 55.8288 19.7222 55.8948 19.7662L56.0834 19.8918L55.9696 20.0862C55.848 20.2919 55.744 20.5072 55.6614 20.731L55.554 21.0219L55.2933 20.8477C55.0546 20.6881 54.8152 20.5292 54.5755 20.3713C51.9164 22.0388 49.2634 23.7528 46.5093 25.2642C43.2948 27.0286 40.0527 28.3892 36.5882 29.5498C40.9964 30.9055 45.656 30.9041 50.1326 29.7584C52.7137 29.0972 55.3096 27.7933 57.6368 26.5291L57.7435 26.4717L57.8545 26.5202C57.8595 26.522 57.8896 26.5334 57.9222 26.561C58.4425 26.8959 59.0198 27.1445 59.6032 27.3513L60.1451 27.5432L59.6284 27.7937C56.4278 29.343 52.992 30.6696 49.4503 31.1918C44.6431 31.9033 39.5725 31.7639 34.9828 30.0663L34.9831 30.0666ZM60.5558 12.8189C59.6401 12.2322 58.7173 11.6554 57.7779 11.1056C56.604 10.4175 55.4008 9.78609 54.173 9.19727C51.5309 10.8804 48.8765 12.5436 46.2028 14.1781C48.4906 15.1951 50.6599 16.4156 52.7761 17.7444C55.2841 15.98 57.8421 14.2654 60.5561 12.8189H60.5558ZM91.1373 30.6115C90.6951 30.7853 90.2479 30.9467 89.7919 31.0829C82.2976 33.3321 74.4998 31.1091 67.6581 27.9402L67.0095 27.6404L67.7092 27.4879C67.9865 27.4276 68.2656 27.3673 68.5394 27.2921L68.627 27.268L68.7096 27.3059C75.1439 30.26 82.4189 32.0644 89.4184 30.012C89.9046 29.8691 90.3813 29.7006 90.8526 29.5161L91.1558 29.3969L91.1874 29.7165C91.2076 29.9233 91.2377 30.1308 91.2856 30.3337L91.3335 30.5352L91.1377 30.6118L91.1373 30.6115ZM90.8171 3.26972C91.2572 3.34846 91.697 3.42863 92.1374 3.50844C93.839 3.833 95.614 4.06675 97.3499 4.06675C98.1674 4.06675 99.0408 3.97311 99.8076 3.68012C100.042 3.59108 100.667 3.32931 100.667 3.01504C100.667 2.74368 100.045 2.50957 99.8459 2.44111C99.0628 2.16621 98.1401 2.0935 97.3141 2.0935C95.0824 2.0935 92.8971 2.49858 90.8175 3.26972H90.8171ZM74.1853 3.39138C71.3219 3.91813 69.0423 5.45934 67.0035 7.46984C65.2147 9.23523 63.4589 11.5987 63.4589 14.2015C63.4589 14.951 63.6461 15.5881 64.1632 16.1471C64.6395 16.6597 65.1909 16.9672 65.9055 16.9672C68.3518 16.9672 70.3789 15.0706 71.7829 13.2942C73.5217 11.0946 74.7179 8.5439 74.7179 5.71792C74.7179 4.90386 74.5463 4.11854 74.1853 3.39103V3.39138ZM134.528 8.59675C136.614 8.26935 140.38 7.61811 141.389 5.99992C141.733 5.45012 141.724 4.87229 141.523 4.27213C141.342 3.7202 140.916 3.49957 140.351 3.49992C138.53 3.49992 136.454 5.39443 135.566 6.81966L134.528 8.59711V8.59675ZM121.796 16.5799C122.748 16.2716 123.676 15.8598 124.504 15.3121C124.998 14.9844 125.905 14.3111 125.905 13.6478C125.905 13.502 125.85 13.4953 125.704 13.4953C125.078 13.4953 124.212 14.1579 123.762 14.5339C123.039 15.1373 122.386 15.841 121.796 16.5795V16.5799ZM132.994 13.5251C132.055 13.5251 129.904 16.3975 129.411 17.0598C128.938 17.6926 127.427 19.7417 127.427 20.5466C127.427 20.8921 127.542 21.0208 127.897 21.0212C129.049 21.0212 130.655 19.1919 131.312 18.4066C132.164 17.3911 133.523 15.5977 133.523 14.2118C133.523 13.811 133.447 13.5247 132.994 13.5247L132.994 13.5251ZM172.77 21.8626C173.998 18.8128 173.827 15.4168 172.217 12.5206C168.085 11.8917 163.805 12.3925 159.797 13.4978C164.1 16.2961 168.328 19.2895 172.77 21.8626ZM150.129 7.41024C152.885 9.05184 155.59 10.7942 158.287 12.5259C162.02 11.422 165.826 10.9659 169.722 10.9832C170.231 10.9861 170.757 11.0251 171.273 11.0822C170.347 9.88257 169.203 8.86811 167.926 8.03383C162.812 4.6953 155.66 5.50652 150.129 7.40989V7.41024ZM139.447 12.8139C142.16 14.2611 144.716 15.9804 147.224 17.744C149.34 16.4153 151.51 15.1947 153.798 14.1778C151.125 12.5433 148.472 10.879 145.829 9.19692C144.601 9.78539 143.398 10.4164 142.224 11.1053C141.286 11.6544 140.362 12.2279 139.447 12.8139H139.447ZM138.863 24.5569C142.199 26.4958 146.164 28.811 149.867 29.7584C154.343 30.9038 159.004 30.9059 163.412 29.5502C159.946 28.3896 156.704 27.0289 153.489 25.2642C150.735 23.7528 148.083 22.0388 145.424 20.3717C143.252 21.8015 141.115 23.2505 138.863 24.5569H138.863ZM171.402 24.3281C165.731 21.6614 160.544 18.3062 155.221 15.0486C152.804 16.0152 150.545 17.1793 148.328 18.5222C153.539 22.2194 159.695 26.8398 165.873 28.6347C166.352 28.4233 166.827 28.1945 167.286 27.9437C168.915 27.0498 170.324 25.8211 171.402 24.3281ZM179.035 27.3375C176.782 26.627 174.581 25.7697 172.43 24.8003C171.938 25.4792 171.397 26.1159 170.778 26.688C169.785 27.605 168.595 28.3853 167.38 29.0185C168.767 29.3313 170.17 29.5282 171.595 29.619C174.25 29.7868 176.932 28.9262 179.035 27.3375ZM173.801 22.4503C176.041 23.6992 178.344 24.8144 180.748 25.7253C183.799 22.1045 183.087 17.9505 179.237 15.1114C177.729 13.9972 175.675 13.2523 173.812 12.8224C175.092 15.9006 175.129 19.3753 173.801 22.4499V22.4503ZM27.5726 24.7988C25.421 25.7686 23.2198 26.6263 20.9657 27.3386C23.0694 28.9259 25.7494 29.7871 28.4046 29.619C29.8288 29.5282 31.2343 29.3313 32.6216 29.0181C31.4073 28.3853 30.2154 27.6042 29.2259 26.688C28.6064 26.1148 28.0645 25.4785 27.5726 24.7988ZM34.1267 28.6343C40.3063 26.8398 46.46 22.2208 51.6714 18.5219C49.4559 17.179 47.1973 16.0148 44.7807 15.0482C39.4576 18.3052 34.2689 21.6611 28.5982 24.3289C29.6763 25.8222 31.0842 27.0495 32.7135 27.943C33.1724 28.1941 33.6472 28.4226 34.1267 28.6343ZM28.7266 11.0822C29.2426 11.0251 29.7696 10.9861 30.2796 10.9832C34.1749 10.9659 37.9795 11.4224 41.7128 12.5259C44.4094 10.7942 47.1153 9.0522 49.8716 7.41024C44.3403 5.50652 37.189 4.69672 32.0744 8.03418C30.797 8.86846 29.6526 9.88293 28.7266 11.0826V11.0822ZM27.2318 21.8622C31.6737 19.2902 35.9017 16.2947 40.2052 13.4974C36.1953 12.3914 31.9152 11.892 27.7822 12.5202C26.1746 15.4161 26.0026 18.8135 27.2322 21.8622H27.2318ZM26.1994 22.4503C24.8731 19.3757 24.9089 15.9006 26.1892 12.8224C24.3252 13.252 22.2722 13.9969 20.7639 15.1114C16.9154 17.9508 16.2029 22.1045 19.2531 25.7257C21.6576 24.8152 23.9599 23.6999 26.1994 22.4507V22.4503Z" fill="white"/>
</svg>
