<svg width="492" height="126" viewBox="0 0 492 126" fill="none" xmlns="http://www.w3.org/2000/svg">
<path fill-rule="evenodd" clip-rule="evenodd" d="M289.456 31.7362C289.728 31.948 289.966 32.2057 290.159 32.5161C291.594 34.8211 289.266 38.7603 288.147 40.8448C287.858 41.3809 286.266 44.2479 286.481 44.7503C286.611 44.8678 286.765 44.9154 286.942 44.9154C287.466 44.9154 288.184 44.516 288.637 44.2376C288.807 44.1545 289.037 44.1009 289.227 44.1009C289.656 44.1009 289.479 44.0499 289.851 44.273C290.131 44.4425 290.311 44.7338 290.318 45.0632C290.318 45.4618 290.055 45.812 289.713 46.0567C288.539 46.7466 287.504 47.0933 286.131 47.0933C285.484 47.0933 284.871 46.9948 284.316 46.802C282.106 49.7442 278.515 53.6643 274.43 53.6652C269.765 53.6652 267.989 50.8077 267.989 46.5383C267.989 43.5614 270.318 39.4476 272.182 37.2057C275.577 33.1222 280.202 30.7713 285.648 30.7713C286.481 30.7713 287.407 30.8413 288.235 31.1102C288.193 31.0419 288.157 30.971 288.126 30.8993L288.101 30.8448L288.089 30.7877C288.061 30.6606 288.026 30.6537 288.078 30.4428C288.248 26.9722 284.577 25.103 281.638 24.1899C280.329 23.7827 278.918 23.481 277.582 23.1611C273.244 22.146 257.812 19.1095 259.08 12.7832C259.857 8.91668 263.584 8.04083 267.141 8.04083C272.115 8.04083 277.983 9.4804 282.847 10.556C288.14 11.7232 294.388 13.2328 299.807 13.2328C304.238 13.2328 309.366 12.3863 312.586 9.14321C313.563 8.16015 314.704 6.46033 314.909 5.07091C314.948 4.74063 314.961 4.77608 315.133 4.61526C315.339 4.37749 315.699 4.22878 316.014 4.22965C316.534 4.22965 316.407 4.17086 316.767 4.5435C317.135 4.90145 317.175 5.41502 316.979 5.85943C315.514 13.0633 308.878 17.1901 301.574 17.1901C296.359 17.1901 289.337 15.2421 284.237 13.991C278.979 12.6993 271.709 10.6908 266.34 10.6908C264.776 10.6908 262.033 10.837 261.713 12.7789C261.07 16.6385 270.516 17.6916 273.048 18.155C276.915 18.8631 281.005 19.5842 284.656 21.0393C288.658 22.6345 291.807 26.4716 290.314 30.812C290.25 31.2745 289.924 31.6532 289.456 31.7371V31.7362ZM287.341 36.6083C287.77 35.8414 288.225 34.6845 287.874 33.998C287.518 33.3098 286.253 33.2328 285.58 33.2328C282.84 33.2328 279.256 37.344 277.645 39.1485C275.674 41.3575 271.391 46.993 272.909 50.2301C273.152 50.7532 273.583 51.1432 274.195 51.1432C277.581 51.1432 279.988 48.6228 281.887 46.1907C282.052 45.946 282.264 45.742 282.51 45.5898C281.964 44.9344 281.643 44.0785 281.643 43.0435C281.643 41.4587 282.352 39.9993 283.321 38.7577C284.153 37.6942 285.454 36.5694 286.916 36.5694C287.059 36.5694 287.203 36.5815 287.343 36.6083H287.341ZM180.849 5.82657C178.552 3.38493 175.532 2.34394 172.056 2.34394C168.165 2.34394 164.471 3.56044 161.117 5.42626C157.27 7.55492 153.995 10.4609 151.308 13.8639C150.954 14.33 150.427 15.045 149.764 15.045C149.218 15.045 148.786 14.7242 148.603 14.2297L148.578 14.164L148.571 14.0939C148.56 13.9919 148.565 14.0429 148.565 13.9556C148.565 12.714 151.759 9.75102 152.555 8.97547C157.816 3.85701 164.329 0 171.963 0C176.702 0 180.891 1.48453 183.877 5.08388C187.874 4.02733 192.128 3.64518 196.256 3.64518C198.554 3.64518 200.875 3.77141 203.15 4.10255C208.33 4.87464 213.681 6.04792 218.822 7.07853C225.247 4.3749 232.176 2.61889 239.205 2.61889C242.343 2.61889 250.047 2.73474 250.047 7.26874C250.047 9.92999 246.717 11.3765 244.553 12.1079C240.664 13.4195 236.295 13.8216 232.201 13.8216C226.383 13.8216 220.272 12.9656 214.549 11.948C205.481 17.1719 200.306 25.3641 195.636 34.2393C195.373 34.7252 195.117 35.2163 194.858 35.7073C194.19 36.9567 193.529 38.2086 192.872 39.4623C191.031 43.0081 189.24 46.0956 186.974 49.4183C179.572 60.2526 168.953 64.6569 155.634 64.6578C151.73 64.6578 147.705 63.9488 144.405 61.8098C141.596 59.9863 139.859 57.4383 139.859 54.1027C139.859 52.5222 140.342 51.0679 141.376 49.8428C142.355 48.692 143.621 47.9891 145.172 47.9891C147.671 47.9891 148.981 49.4451 148.981 51.834C148.981 52.9554 148.622 53.9652 147.865 54.8134C147.115 55.6573 146.14 56.1181 144.992 56.119C143.928 56.119 143.109 55.7878 142.6 55.1636C142.887 57.1487 144.247 58.6462 145.988 59.7797C148.628 61.5029 151.766 62.1314 154.907 62.1314C163.584 62.1314 170.636 57.8577 176.253 51.642C180.583 46.8867 184.571 40.5941 187.96 35.1704C193.524 26.3074 201.192 16.5278 210.743 11.2831C209.062 10.9597 207.387 10.6061 205.72 10.2447C200.259 9.09306 193.725 7.8169 188.125 7.81776C187.304 7.81776 186.44 7.86964 185.595 7.92065C186.772 10.4998 187.272 13.2907 187.272 16.118C187.272 23.3098 184.226 29.6361 179.437 35.0139C175.07 39.9275 169.415 43.8857 162.495 43.8857C159.981 43.8857 157.753 43.0893 156.017 41.2996C154.253 39.4822 153.521 37.1858 153.521 34.7079C153.521 30.5846 155.393 26.4785 157.598 23.04C160.343 18.7637 163.908 15.0917 168.039 12.0578C171.899 9.23226 176.21 7.11743 180.845 5.82657H180.849ZM253.47 52.2075C252.31 52.9536 251 53.4309 249.486 53.4318C247.893 53.4318 246.202 53.0444 245.33 51.6213C243.634 48.8225 246.447 43.7603 247.861 41.2616C249.726 37.9666 251.796 34.8125 253.753 31.5754C254.017 31.1906 254.017 31.1863 254.471 31.1863C254.521 31.1863 254.502 31.1829 254.614 31.1967C255.226 31.3022 255.873 31.3359 256.494 31.3359C257.343 31.3359 258.268 31.2088 259.106 31.0808L259.152 31.0739L259.17 31.0757C259.203 31.0713 259.206 31.0705 259.239 31.0705C259.666 31.0705 259.706 31.0947 259.943 31.4466C260.224 31.8754 260.228 31.8962 259.948 32.319L252.438 44.2021C251.741 45.3019 249.359 49.0923 249.359 50.3797C249.359 50.9789 249.463 51.1008 250.081 51.1008C254.311 51.1008 260.214 40.4143 262.012 37.4201L265.513 31.6204C265.745 31.1474 265.801 31.1846 266.261 31.1846C266.331 31.1846 266.381 31.1881 266.413 31.2002C267.059 31.3126 267.738 31.3342 268.392 31.3342C269.181 31.3342 270.013 31.2183 270.788 31.0808L270.841 31.0722L270.944 31.0687C271.381 31.0687 271.384 31.0981 271.644 31.4345C271.921 31.8823 271.921 31.897 271.656 32.3233C266.091 40.9166 261.22 50.2059 255.939 59.0033C250.906 66.7804 244.235 77.5249 233.53 77.5249C229.868 77.5249 227.791 74.7296 227.791 71.3352C227.791 67.6718 229.976 64.2117 232.767 61.8867C237.052 58.3099 242.874 57.0475 248.398 57.0475C248.479 57.0475 248.538 57.0501 248.592 57.0674C248.966 57.1461 249.319 57.3787 249.505 57.7505C249.68 58.2295 249.691 58.047 249.48 58.5883C249.261 59.0042 248.775 59.3232 248.262 59.3854C243.664 59.3854 239.391 61.4294 236.144 64.5177C234.068 66.4925 231.376 70.0901 231.376 73.054C231.376 74.4866 232.023 75.251 233.607 75.2518C236.588 75.2518 239.099 73.4604 241.029 71.4026C244.517 67.6831 247.748 62.0882 250.233 57.677L253.468 52.2049L253.47 52.2075ZM233.563 58.8598C233.254 59.4045 232.562 59.8437 231.911 59.8437H184.06C183.646 59.8437 183.27 59.6517 183.032 59.2972C182.802 58.9004 182.856 58.4249 183.087 58.0436C183.411 57.5023 184.088 57.0683 184.74 57.0683H232.585C233.021 57.0683 233.418 57.2464 233.598 57.6026C233.87 58.0012 233.796 58.4707 233.563 58.8598ZM242.063 51.9438L242.041 51.9991L241.897 52.1003C240.941 52.7747 239.748 53.4508 238.531 53.4508C237.112 53.4508 235.886 52.9467 234.946 51.9109C233.99 50.8682 233.585 49.5843 233.585 48.1966C233.585 45.7852 235.254 42.9752 236.594 41.035C237.069 40.346 237.55 39.6655 238.04 38.9894C238.539 38.2908 241.253 34.5903 241.435 33.5623C241.142 33.4991 240.843 33.4654 240.542 33.4654C237.463 33.4654 234.803 38.1481 233.368 40.3356C230.776 44.2816 228.211 48.0626 224.311 50.9296C221.677 52.862 218.569 53.513 215.322 53.513C213.671 53.513 212.027 53.1067 210.966 51.7916C209.918 50.4757 209.904 48.8476 210.332 47.3277L210.349 47.2377C210.364 47.1876 210.381 47.1383 210.395 47.0882C209.823 47.07 209.281 46.9714 208.785 46.7994C206.572 49.7451 202.992 53.6626 198.896 53.6635C194.233 53.6635 192.462 50.7999 192.462 46.5365C192.462 43.5588 194.787 39.4468 196.651 37.204C200.045 33.1196 204.671 30.7696 210.117 30.7696C211.737 30.7696 213.707 31.0376 214.632 32.5118C216.07 34.8168 213.741 38.7559 212.624 40.8414C212.337 41.3774 210.74 44.2479 210.944 44.7425C211.052 44.835 211.163 44.8843 211.296 44.9007C211.998 43.6176 212.946 42.4884 214.074 41.5296C215.509 40.32 217.508 38.7274 219.515 38.7274C219.891 38.7274 220.246 38.8018 220.572 38.9894L220.637 39.0266L220.651 39.0395C220.685 39.0646 220.716 39.0914 220.744 39.1225L221.209 39.5479L221.241 39.5903C221.689 40.1817 221.872 40.8448 221.67 41.559C221.062 43.7508 218.638 44.6612 216.577 45.0745C215.599 45.2716 214.73 45.7982 213.992 46.4397C213.317 47.0268 212.699 47.7608 212.455 48.6211C212.313 49.1494 212.224 49.8575 212.668 50.2846C213.349 50.9581 214.205 51.2486 215.171 51.2486C217.806 51.2486 221.079 49.1779 223.079 47.645C225.076 46.099 227.133 43.1689 228.644 41.144C231.093 37.8792 235.736 31.0731 240.369 31.0739C242.237 31.0739 244.487 31.4518 245.439 33.2225C247.157 36.3593 243.458 41.7319 241.667 44.2955C240.832 45.5007 238.342 49.1857 238.114 50.6278C238.1 50.7255 238.074 50.9616 238.138 51.0359C238.266 51.1751 238.66 51.1916 238.829 51.1916C239.36 51.1916 240.098 50.7273 240.529 50.4316C240.648 50.359 240.526 50.25 241.142 50.25C241.476 50.25 241.786 50.403 242.019 50.6296C242.409 50.9996 242.394 51.5513 242.066 51.9438H242.063ZM206.977 45.5863C206.434 44.9327 206.114 44.0767 206.114 43.0444C206.114 41.4535 206.814 39.9984 207.793 38.7585C208.619 37.6968 209.921 36.5702 211.379 36.5702C211.524 36.5702 211.671 36.5832 211.813 36.6109C212.241 35.8431 212.694 34.6854 212.344 33.9972C211.989 33.3107 210.707 33.2337 210.037 33.2337C207.306 33.2337 203.719 37.3501 202.115 39.1493C200.148 41.3489 195.841 47.0008 197.375 50.2293C197.618 50.7463 198.043 51.144 198.653 51.144C202.042 51.144 204.446 48.6315 206.368 46.1725C206.537 45.9348 206.741 45.7342 206.978 45.5872L206.977 45.5863ZM259.476 59.8445C259.058 59.8445 258.668 59.6517 258.438 59.2843C258.22 58.8866 258.275 58.4162 258.505 58.0462C258.82 57.5075 259.499 57.0683 260.145 57.0683H323.21C323.638 57.0683 324.032 57.2551 324.237 57.6156C324.476 58.0073 324.416 58.4759 324.193 58.8684C323.864 59.4096 323.188 59.8437 322.533 59.8437H259.476V59.8445ZM322.234 24.7779C320.142 25.0805 317.771 26.0194 316.476 27.4564C315.272 28.8017 314.983 30.4583 315.226 32.2152C315.257 32.6051 315.008 32.9726 314.623 33.0841L314.363 33.1602C314.241 33.1983 314.254 33.1965 314.116 33.1965C313.861 33.1965 313.809 33.1931 313.621 33.0323C313.304 32.8343 313.333 32.7858 313.276 32.4365L313.24 31.8443C312.834 25.1669 317.676 22.97 323.42 21.8598C323.687 21.8123 323.956 21.7613 324.222 21.7016C324.548 21.1941 324.868 20.6857 325.173 20.1695C325.487 19.6023 325.922 19.0248 326.29 18.4913C330.14 12.9068 336.792 6.01938 344.341 6.01938C347.094 6.01938 349.952 7.08285 351.362 9.5072C352.588 11.622 352.276 14.0801 351.028 16.1188C347.927 21.1811 338.673 22.4279 333.214 23.3625C331.882 23.5916 330.548 23.8173 329.223 24.0758L324.195 31.7976C325.105 31.2019 326.138 30.78 327.244 30.78C328.946 30.78 330.349 31.4786 331.399 32.7798C332.493 34.1562 332.932 35.812 332.932 37.5343C332.932 42.4452 329.039 46.4328 325.277 49.2177C322.451 51.3126 318.746 53.4309 315.083 53.4318C313.523 53.4318 312.199 52.8326 311.2 51.6628C310.165 50.4316 309.775 48.9056 309.774 47.338C309.774 46.955 309.819 46.559 309.897 46.1596C306.718 49.5748 302.257 53.43 297.912 53.4309C295.911 53.4309 294.179 52.7141 292.811 51.2919C291.394 49.8367 290.761 48.0297 290.76 46.0351C290.76 45.512 290.825 44.9802 290.91 44.4425C291.161 43.4058 291.557 42.1988 292.028 41.2348C292.165 40.9728 292.311 40.7117 292.471 40.4627V40.4514L292.567 40.3062C296.393 34.541 302.136 30.78 309.381 30.78C310.455 30.78 311.446 31.0938 312.263 31.7708C313.083 32.4288 313.544 33.302 313.544 34.3439C313.544 36.8322 311.614 38.5113 309.517 39.611C306.212 41.3316 301.366 42.4003 297.656 43.1309C296.614 44.7018 295.381 46.9196 295.381 48.7871C295.381 50.5708 296.344 51.1604 298.098 51.1604C303.189 51.1604 311.032 42.3216 313.553 38.4153C316.316 33.8502 319.331 29.2868 322.235 24.777L322.234 24.7779ZM150.524 57.1383C150.522 57.1357 150.545 57.1124 150.57 57.0916L150.931 56.7769L151.324 57.0527C151.358 57.0769 151.395 57.0968 151.428 57.121L154.732 59.3362L150.913 58.1655C150.863 58.1542 150.82 58.1491 150.77 58.1344L149.656 57.8326L150.524 57.1383ZM338.763 58.2234C344.281 54.9284 349.617 51.3766 354.985 47.8585C349.074 43.8787 342.991 40.0382 336.706 36.6472L336.43 36.4993L336.398 36.195C336.184 34.1822 335.496 32.2463 334.208 30.6425C333.45 29.694 332.524 28.902 331.44 28.3279L330.87 28.0271L331.409 27.2083L331.664 27.1616C332.213 27.0613 332.765 26.9679 333.315 26.8728L333.486 26.8443L333.645 26.9065C335.742 27.7305 337.811 28.6193 339.837 29.5963C344.988 26.3878 350.048 23.1792 355.419 20.3243C354.882 19.9845 354.345 19.6456 353.808 19.3084L353.283 18.9807L353.638 18.4827C353.776 18.2855 353.967 18.1022 354.09 17.9051C355.228 16.0505 355.817 13.9253 355.668 11.7621L355.599 10.7773L356.521 11.1897C359.494 12.5238 362.408 14.1095 365.242 15.709C379.582 9.90838 394.168 8.39791 408.983 13.7749C416.146 16.3704 422.008 21.2045 425.771 27.6682C434.944 29.4156 444.234 33.5709 449.265 41.6022C453.701 48.6669 452.212 57.2429 447.279 63.6462C461.546 68.5736 476.029 70.1126 491.14 69.6059C492.292 69.5593 492.224 71.2841 491.308 71.3888C475.035 73.3039 459.221 72.0571 443.511 67.5655C438.149 72.128 431.307 74.5074 424.275 75.1844C418.112 75.7818 411.858 75.0409 405.946 73.2857C394.655 77.4237 382.176 77.7626 370.349 76.0291C358.277 74.2636 346.541 68.7405 335.989 62.9381C316.584 73.1992 293.354 82.377 271.108 75.7619C265.273 74.0249 259.873 71.1181 255.448 67.0052L255.077 66.6602L255.366 66.2504C255.626 65.8812 255.879 65.5094 256.132 65.1385L256.527 64.5636L257.046 65.0348C261.303 68.8961 266.471 71.5357 272.025 73.1517C292.96 79.2351 314.967 71.4467 333.224 61.4052C331.566 60.474 329.917 59.5281 328.27 58.577L327.976 58.4084L327.974 58.0764C327.969 57.3649 327.797 56.6239 327.391 55.9996C326.988 55.2673 326.385 54.6543 325.65 54.235L324.817 53.7603L325.62 53.2398C326.164 52.8879 326.695 52.5144 327.217 52.1305L327.53 51.9014L327.873 52.0864C331.538 54.0716 335.151 56.144 338.761 58.2208L338.763 58.2234ZM86.0585 73.2874C80.1462 75.0426 73.891 75.7836 67.7292 75.1861C60.6958 74.5091 53.8526 72.1297 48.4899 67.5646C32.7795 72.0588 16.9662 73.3065 0.69221 71.3905C-0.220332 71.285 -0.296232 69.561 0.860585 69.6068C15.9725 70.1143 30.458 68.5745 44.7237 63.6488C39.7867 57.2464 38.2931 48.6704 42.7285 41.604C47.7667 33.5726 57.0552 29.4173 66.2312 27.67C69.9905 21.2062 75.8548 16.3722 83.0138 13.7766C97.8291 8.39964 112.417 9.91011 126.758 15.7107C129.642 14.081 132.617 12.4616 135.648 11.1128C140.002 9.18297 144.458 7.47365 148.986 5.96924L151.406 5.16342L149.609 6.93586C147.804 8.71436 144.996 11.2511 144.996 13.9539L145 14.7156L145.33 15.6623L144.834 15.8819C143.037 16.6774 141.087 17.5515 139.407 18.5588C138.458 19.1268 137.519 19.7268 136.582 20.3243C141.379 22.8688 145.951 25.7013 150.543 28.5847L150.918 28.8199L150.795 29.2375C150.612 29.8643 150.449 30.4998 150.326 31.1414L150.221 31.6895C150.051 32.6856 149.955 33.6963 149.955 34.707C149.955 36.0938 150.191 37.4443 150.597 38.7706L150.73 39.2064L150.33 39.4407C145.795 42.0933 141.366 44.9292 137.016 47.8602C137.178 47.9657 137.339 48.0729 137.501 48.1802L137.965 48.4862L137.685 48.96C137.386 49.4615 137.13 49.9863 136.927 50.5319L136.663 51.2409L136.022 50.8163C135.434 50.4273 134.846 50.0399 134.256 49.6552C127.714 53.7197 121.188 57.8975 114.413 61.5815C106.505 65.8821 98.5296 69.1987 90.0071 72.0277C100.851 75.3322 112.314 75.3288 123.326 72.5361C129.676 70.9245 136.062 67.7462 141.786 64.6647L142.049 64.5247L142.322 64.6431C142.334 64.6474 142.408 64.6751 142.489 64.7425C143.769 65.5587 145.189 66.1648 146.624 66.6689L147.957 67.1366L146.686 67.747C138.812 71.5236 130.36 74.7573 121.648 76.03C109.822 77.7644 97.3484 77.4246 86.0577 73.2866L86.0585 73.2874ZM148.967 31.246C146.715 29.8159 144.445 28.4101 142.134 27.0699C139.246 25.3926 136.286 23.8536 133.266 22.4184C126.766 26.5209 120.236 30.575 113.659 34.5592C119.287 37.038 124.623 40.0131 129.829 43.2519C135.999 38.9514 142.292 34.7718 148.968 31.246H148.967ZM224.198 74.6155C223.11 75.0391 222.01 75.4325 220.888 75.7645C202.452 81.247 183.27 75.8285 166.439 68.1041L164.843 67.3735L166.565 67.0017C167.247 66.8548 167.933 66.7078 168.607 66.5245L168.822 66.4657L169.026 66.5582C184.854 73.7586 202.751 78.1569 219.969 73.1543C221.165 72.8058 222.338 72.3952 223.497 71.9456L224.243 71.6551L224.321 72.4341C224.371 72.9381 224.445 73.4439 224.563 73.9385L224.68 74.4296L224.199 74.6163L224.198 74.6155ZM223.41 7.96993C224.493 8.16188 225.575 8.35728 226.658 8.55181C230.844 9.34293 235.21 9.9127 239.481 9.9127C241.492 9.9127 243.64 9.68445 245.527 8.97028C246.103 8.75327 247.64 8.11519 247.64 7.34915C247.64 6.68772 246.111 6.11708 245.621 5.95021C243.695 5.28014 241.425 5.1029 239.393 5.1029C233.903 5.1029 228.527 6.09028 223.411 7.96993H223.41ZM182.496 8.26649C175.452 9.55043 169.844 13.3071 164.829 18.2077C160.428 22.5109 156.109 28.2717 156.109 34.6162C156.109 36.4431 156.569 37.996 157.841 39.3586C159.013 40.6079 160.37 41.3575 162.128 41.3575C168.145 41.3575 173.132 36.7345 176.586 32.4045C180.863 27.0431 183.806 20.8258 183.806 13.9374C183.806 11.9532 183.384 10.0389 182.496 8.26563V8.26649ZM330.938 20.9546C336.071 20.1566 345.335 18.5691 347.817 14.6248C348.662 13.2847 348.641 11.8762 348.147 10.4133C347.703 9.06798 346.654 8.5302 345.263 8.53106C340.783 8.53106 335.677 13.1489 333.493 16.6229L330.938 20.9554V20.9546ZM299.618 40.4134C301.96 39.662 304.243 38.6582 306.279 37.3233C307.494 36.5244 309.726 34.8834 309.726 33.2666C309.726 32.9112 309.59 32.8948 309.231 32.8948C307.693 32.8948 305.562 34.5099 304.455 35.4264C302.677 36.897 301.069 38.6124 299.618 40.4125V40.4134ZM327.165 32.9674C324.856 32.9674 319.563 39.969 318.35 41.5832C317.188 43.1257 313.47 48.1205 313.47 50.0823C313.47 50.9244 313.754 51.2383 314.627 51.2391C317.46 51.2391 321.412 46.7803 323.027 44.8661C325.123 42.3907 328.467 38.0193 328.467 34.6413C328.467 33.6643 328.28 32.9665 327.166 32.9665L327.165 32.9674ZM425.013 53.29C428.035 45.8561 427.615 37.5784 423.653 30.5188C413.49 28.9859 402.96 30.2067 393.1 32.9008C403.685 39.7217 414.088 47.0181 425.013 53.29ZM369.317 18.0625C376.097 22.0639 382.752 26.3108 389.386 30.5318C398.569 27.8412 407.933 26.7293 417.516 26.7717C418.769 26.7786 420.063 26.8737 421.331 27.0129C419.054 24.0888 416.238 21.616 413.098 19.5825C400.517 11.4448 382.923 13.4221 369.317 18.0616V18.0625ZM343.039 31.2339C349.713 34.7615 356.001 38.9522 362.171 43.251C367.376 40.0122 372.715 37.0371 378.343 34.5583C371.767 30.5742 365.241 26.5175 358.739 22.4175C355.718 23.8519 352.758 25.39 349.872 27.0691C347.564 28.4075 345.291 29.8056 343.039 31.2339H343.039ZM341.603 59.8575C349.809 64.5834 359.564 70.2267 368.674 72.5361C379.684 75.3279 391.15 75.3331 401.993 72.0286C393.467 69.1996 385.492 65.883 377.583 61.5815C370.809 57.8975 364.284 53.7197 357.743 49.656C352.4 53.1413 347.143 56.6732 341.602 59.8575H341.603ZM421.65 59.2998C407.698 52.7997 394.938 44.6214 381.844 36.6809C375.897 39.0369 370.34 41.8746 364.887 45.148C377.707 54.1598 392.851 65.4221 408.048 69.797C409.227 69.2817 410.395 68.724 411.524 68.1128C415.532 65.934 418.996 62.939 421.65 59.2998ZM440.426 66.6352C434.883 64.9034 429.469 62.8136 424.178 60.4506C422.967 62.1055 421.638 63.6575 420.113 65.0521C417.672 67.2871 414.745 69.1892 411.754 70.7325C415.166 71.4951 418.619 71.975 422.124 72.1963C428.656 72.6053 435.253 70.5077 440.426 66.6352ZM427.551 54.7226C433.06 57.7669 438.726 60.4852 444.641 62.7055C452.147 53.8796 450.393 43.7542 440.924 36.8339C437.214 34.1182 432.162 32.3025 427.578 31.2546C430.726 38.7577 430.816 47.2273 427.551 54.7218V54.7226ZM67.8286 60.4472C62.5357 62.811 57.1206 64.9016 51.5756 66.6378C56.7507 70.5069 63.3436 72.6061 69.8753 72.1963C73.3789 71.975 76.8363 71.4951 80.2491 70.7317C77.262 69.1892 74.3298 67.2853 71.8958 65.0521C70.3717 63.6549 69.0387 62.1038 67.8286 60.4472ZM83.9517 69.7962C99.1534 65.4221 114.291 54.1632 127.112 45.1471C121.662 41.8737 116.105 39.0361 110.161 36.68C97.0657 44.6188 84.3015 52.7989 70.3516 59.3016C73.0038 62.9416 76.4672 65.9331 80.4751 68.111C81.604 68.7232 82.7722 69.28 83.9517 69.7962ZM70.6674 27.0129C71.9368 26.8737 73.2332 26.7786 74.4877 26.7717C84.0703 26.7293 93.4295 27.842 102.613 30.5318C109.247 26.3108 115.904 22.0647 122.684 18.0625C109.077 13.4221 91.4849 11.4482 78.903 19.5833C75.7606 21.6169 72.9453 24.0896 70.6674 27.0137V27.0129ZM66.9902 53.2891C77.9172 47.0198 88.3181 39.7183 98.9048 32.9C89.0404 30.2041 78.5113 28.9868 68.3442 30.518C64.3896 37.5766 63.9665 45.8578 66.9911 53.2891H66.9902ZM64.4506 54.7226C61.1878 47.2282 61.2759 38.7577 64.4253 31.2546C59.84 32.3017 54.7896 34.1173 51.0792 36.8339C41.6118 43.7551 39.8591 53.8796 47.3627 62.7064C53.2777 60.4869 58.9414 57.7686 64.4506 54.7235V54.7226Z" fill="white"/>
<path d="M16.7971 124.817L14.7197 119.186H7.17575L5.09841 124.817H2.03708L9.44441 105.219H12.5057L19.8857 124.817H16.7971ZM11.9317 111.123C11.8771 110.922 11.7769 110.622 11.6311 110.221C11.5035 109.802 11.376 109.382 11.2484 108.963C11.1209 108.526 11.0206 108.171 10.9477 107.897C10.8566 108.262 10.7473 108.663 10.6197 109.1C10.5104 109.519 10.4011 109.911 10.2917 110.275C10.1824 110.622 10.0913 110.904 10.0184 111.123L8.05041 116.617H13.8997L11.9317 111.123Z" fill="white"/>
<path d="M27.4105 105.301C29.0687 105.301 30.4536 105.456 31.5652 105.765C32.695 106.075 33.5423 106.594 34.1072 107.323C34.6903 108.034 34.9819 108.982 34.9819 110.166C34.9819 110.931 34.8452 111.615 34.5719 112.216C34.2985 112.799 33.8976 113.291 33.3692 113.692C32.859 114.075 32.2212 114.33 31.4559 114.457V114.594C32.2394 114.722 32.941 114.958 33.5605 115.305C34.1801 115.633 34.6721 116.116 35.0365 116.753C35.401 117.391 35.5832 118.22 35.5832 119.241C35.5832 120.425 35.3007 121.436 34.7359 122.275C34.1892 123.095 33.3965 123.723 32.3579 124.161C31.3374 124.598 30.1165 124.817 28.6952 124.817H21.6979V105.301H27.4105ZM27.9025 113.446C29.4332 113.446 30.481 113.2 31.0459 112.708C31.629 112.216 31.9205 111.487 31.9205 110.521C31.9205 109.537 31.5743 108.836 30.8819 108.417C30.1894 107.998 29.087 107.788 27.5745 107.788H24.6499V113.446H27.9025ZM24.6499 115.851V122.357H28.2305C29.8159 122.357 30.9183 122.047 31.5379 121.427C32.1574 120.808 32.4672 119.988 32.4672 118.967C32.4672 118.348 32.3305 117.801 32.0572 117.327C31.7839 116.854 31.3192 116.489 30.6632 116.234C30.0254 115.979 29.1507 115.851 28.0392 115.851H24.6499Z" fill="white"/>
<path d="M45.3754 124.817H42.4234V107.843H36.574V105.301H51.2247V107.843H45.3754V124.817Z" fill="white"/>
<path d="M70.0832 115.031C70.0832 116.544 69.8919 117.92 69.5092 119.159C69.1447 120.38 68.5799 121.436 67.8145 122.329C67.0674 123.222 66.1199 123.906 64.9719 124.379C63.8421 124.853 62.521 125.09 61.0085 125.09C59.4596 125.09 58.1112 124.853 56.9632 124.379C55.8334 123.887 54.8859 123.204 54.1205 122.329C53.3734 121.436 52.8176 120.37 52.4532 119.131C52.0888 117.892 51.9065 116.516 51.9065 115.004C51.9065 113 52.2345 111.25 52.8905 109.756C53.5465 108.262 54.5488 107.096 55.8972 106.257C57.2639 105.419 58.9768 105 61.0359 105C63.0403 105 64.7076 105.419 66.0379 106.257C67.3863 107.077 68.3976 108.244 69.0719 109.756C69.7461 111.25 70.0832 113.009 70.0832 115.031ZM55.0225 115.031C55.0225 116.598 55.2321 117.947 55.6512 119.077C56.0703 120.188 56.7263 121.054 57.6192 121.673C58.5121 122.275 59.6419 122.575 61.0085 122.575C62.3934 122.575 63.5232 122.275 64.3979 121.673C65.2725 121.054 65.9194 120.188 66.3385 119.077C66.7576 117.947 66.9672 116.598 66.9672 115.031C66.9672 112.681 66.4934 110.849 65.5459 109.537C64.6165 108.207 63.1132 107.542 61.0359 107.542C59.651 107.542 58.5121 107.843 57.6192 108.444C56.7263 109.045 56.0703 109.902 55.6512 111.013C55.2321 112.125 55.0225 113.464 55.0225 115.031Z" fill="white"/>
<path d="M78.9708 105.301C81.5219 105.301 83.3806 105.82 84.5468 106.859C85.713 107.879 86.2961 109.31 86.2961 111.15C86.2961 111.97 86.1595 112.754 85.8861 113.501C85.631 114.248 85.2028 114.922 84.6015 115.523C84.0001 116.106 83.1984 116.571 82.1961 116.917C81.2121 117.245 80.0004 117.409 78.5608 117.409H76.4561V124.817H73.5041V105.301H78.9708ZM78.7521 107.788H76.4561V114.922H78.2328C79.3444 114.922 80.2737 114.804 81.0208 114.567C81.7679 114.312 82.3237 113.92 82.6881 113.391C83.0708 112.845 83.2621 112.134 83.2621 111.259C83.2621 110.093 82.8977 109.228 82.1688 108.663C81.4581 108.08 80.3192 107.788 78.7521 107.788Z" fill="white"/>
<path d="M97.7571 107.569C96.7913 107.569 95.9258 107.742 95.1605 108.089C94.3951 108.417 93.7391 108.909 93.1925 109.565C92.664 110.221 92.254 111.013 91.9625 111.943C91.6891 112.872 91.5525 113.92 91.5525 115.086C91.5525 116.617 91.7802 117.947 92.2358 119.077C92.6913 120.188 93.3747 121.045 94.2858 121.646C95.1969 122.247 96.3449 122.548 97.7298 122.548C98.568 122.548 99.3698 122.475 100.135 122.329C100.919 122.165 101.711 121.956 102.513 121.701V124.243C101.748 124.534 100.964 124.744 100.162 124.871C99.3607 125.017 98.4313 125.09 97.3745 125.09C95.3882 125.09 93.73 124.68 92.3998 123.86C91.0878 123.04 90.1038 121.874 89.4478 120.361C88.7918 118.849 88.4638 117.081 88.4638 115.059C88.4638 113.583 88.6642 112.234 89.0651 111.013C89.4842 109.774 90.0856 108.708 90.8691 107.815C91.6527 106.922 92.6185 106.239 93.7665 105.765C94.9327 105.273 96.272 105.027 97.7845 105.027C98.7685 105.027 99.7342 105.137 100.682 105.355C101.629 105.556 102.486 105.847 103.251 106.23L102.158 108.69C101.52 108.398 100.828 108.143 100.08 107.925C99.3516 107.688 98.5771 107.569 97.7571 107.569Z" fill="white"/>
<path d="M120.63 124.817H117.159L108.849 114.922V124.817H105.897V105.301H108.849V114.758L116.995 105.301H120.247L112.184 114.758L120.63 124.817Z" fill="white"/>
<path d="M134.564 124.817L132.487 119.186H124.943L122.866 124.817H119.804L127.212 105.219H130.273L137.653 124.817H134.564ZM129.699 111.123C129.644 110.922 129.544 110.622 129.398 110.221C129.271 109.802 129.143 109.382 129.016 108.963C128.888 108.526 128.788 108.171 128.715 107.897C128.624 108.262 128.514 108.663 128.387 109.1C128.278 109.519 128.168 109.911 128.059 110.275C127.95 110.622 127.858 110.904 127.786 111.123L125.818 116.617H131.667L129.699 111.123Z" fill="white"/>
<path d="M145.533 116.89L140.64 124.817H137.251L142.745 116.261C142.107 116.043 141.488 115.724 140.886 115.305C140.303 114.867 139.82 114.293 139.438 113.583C139.073 112.854 138.891 111.924 138.891 110.795C138.891 109.027 139.511 107.67 140.75 106.722C142.007 105.774 143.829 105.301 146.216 105.301H151.956V124.817H149.004V116.89H145.533ZM146.298 107.788C145.369 107.788 144.576 107.897 143.92 108.116C143.283 108.335 142.791 108.681 142.444 109.155C142.098 109.61 141.925 110.212 141.925 110.959C141.925 112.07 142.289 112.936 143.018 113.555C143.765 114.157 144.895 114.457 146.408 114.457H149.004V107.788H146.298Z" fill="white"/>
<path d="M170.959 107.569C169.993 107.569 169.128 107.742 168.363 108.089C167.597 108.417 166.941 108.909 166.395 109.565C165.866 110.221 165.456 111.013 165.165 111.943C164.891 112.872 164.755 113.92 164.755 115.086C164.755 116.617 164.982 117.947 165.438 119.077C165.893 120.188 166.577 121.045 167.488 121.646C168.399 122.247 169.547 122.548 170.932 122.548C171.77 122.548 172.572 122.475 173.337 122.329C174.121 122.165 174.913 121.956 175.715 121.701V124.243C174.95 124.534 174.166 124.744 173.365 124.871C172.563 125.017 171.633 125.09 170.577 125.09C168.59 125.09 166.932 124.68 165.602 123.86C164.29 123.04 163.306 121.874 162.65 120.361C161.994 118.849 161.666 117.081 161.666 115.059C161.666 113.583 161.866 112.234 162.267 111.013C162.686 109.774 163.288 108.708 164.071 107.815C164.855 106.922 165.821 106.239 166.969 105.765C168.135 105.273 169.474 105.027 170.987 105.027C171.971 105.027 172.936 105.137 173.884 105.355C174.831 105.556 175.688 105.847 176.453 106.23L175.36 108.69C174.722 108.398 174.03 108.143 173.283 107.925C172.554 107.688 171.779 107.569 170.959 107.569Z" fill="white"/>
<path d="M185.659 124.817H182.707V107.843H176.858V105.301H191.509V107.843H185.659V124.817Z" fill="white"/>
<path d="M210.367 115.031C210.367 116.544 210.176 117.92 209.793 119.159C209.429 120.38 208.864 121.436 208.099 122.329C207.351 123.222 206.404 123.906 205.256 124.379C204.126 124.853 202.805 125.09 201.293 125.09C199.744 125.09 198.395 124.853 197.247 124.379C196.117 123.887 195.17 123.204 194.405 122.329C193.657 121.436 193.102 120.37 192.737 119.131C192.373 117.892 192.191 116.516 192.191 115.004C192.191 113 192.519 111.25 193.175 109.756C193.831 108.262 194.833 107.096 196.181 106.257C197.548 105.419 199.261 105 201.32 105C203.324 105 204.992 105.419 206.322 106.257C207.67 107.077 208.682 108.244 209.356 109.756C210.03 111.25 210.367 113.009 210.367 115.031ZM195.307 115.031C195.307 116.598 195.516 117.947 195.935 119.077C196.354 120.188 197.01 121.054 197.903 121.673C198.796 122.275 199.926 122.575 201.293 122.575C202.677 122.575 203.807 122.275 204.682 121.673C205.557 121.054 206.203 120.188 206.623 119.077C207.042 117.947 207.251 116.598 207.251 115.031C207.251 112.681 206.777 110.849 205.83 109.537C204.901 108.207 203.397 107.542 201.32 107.542C199.935 107.542 198.796 107.843 197.903 108.444C197.01 109.045 196.354 109.902 195.935 111.013C195.516 112.125 195.307 113.464 195.307 115.031Z" fill="white"/>
<path d="M227.714 124.817H224.762V107.843H218.994C218.867 108.79 218.73 109.802 218.584 110.877C218.457 111.934 218.32 112.99 218.174 114.047C218.029 115.104 217.883 116.106 217.737 117.054C217.591 117.983 217.445 118.803 217.3 119.514C217.063 120.698 216.762 121.71 216.398 122.548C216.033 123.386 215.55 124.024 214.949 124.461C214.348 124.899 213.555 125.117 212.571 125.117C212.243 125.117 211.915 125.081 211.587 125.008C211.277 124.953 210.995 124.88 210.74 124.789V122.357C210.958 122.43 211.186 122.502 211.423 122.575C211.678 122.63 211.942 122.657 212.216 122.657C212.726 122.657 213.127 122.466 213.418 122.083C213.71 121.701 213.947 121.19 214.129 120.553C214.311 119.915 214.475 119.213 214.621 118.448C214.712 117.938 214.831 117.254 214.976 116.398C215.122 115.542 215.277 114.53 215.441 113.364C215.623 112.198 215.805 110.931 215.988 109.565C216.188 108.198 216.37 106.777 216.534 105.301H227.714V124.817Z" fill="white"/>
<path d="M238.148 116.89L233.256 124.817H229.866L235.36 116.261C234.722 116.043 234.103 115.724 233.502 115.305C232.918 114.867 232.436 114.293 232.053 113.583C231.688 112.854 231.506 111.924 231.506 110.795C231.506 109.027 232.126 107.67 233.365 106.722C234.622 105.774 236.444 105.301 238.832 105.301H244.572V124.817H241.62V116.89H238.148ZM238.914 107.788C237.984 107.788 237.192 107.897 236.536 108.116C235.898 108.335 235.406 108.681 235.06 109.155C234.713 109.61 234.54 110.212 234.54 110.959C234.54 112.07 234.905 112.936 235.633 113.555C236.381 114.157 237.51 114.457 239.023 114.457H241.62V107.788H238.914Z" fill="white"/>
<path d="M254.424 105.301C256.975 105.301 258.834 105.82 260 106.859C261.166 107.879 261.749 109.31 261.749 111.15C261.749 111.97 261.613 112.754 261.339 113.501C261.084 114.248 260.656 114.922 260.055 115.523C259.453 116.106 258.652 116.571 257.649 116.917C256.665 117.245 255.454 117.409 254.014 117.409H251.909V124.817H248.957V105.301H254.424ZM254.205 107.788H251.909V114.922H253.686C254.798 114.922 255.727 114.804 256.474 114.567C257.221 114.312 257.777 113.92 258.141 113.391C258.524 112.845 258.715 112.134 258.715 111.259C258.715 110.093 258.351 109.228 257.622 108.663C256.911 108.08 255.773 107.788 254.205 107.788Z" fill="white"/>
<path d="M280.098 124.817H277.146V115.906H267.826V124.817H264.874V105.301H267.826V113.391H277.146V105.301H280.098V124.817Z" fill="white"/>
<path d="M296.664 124.817L294.586 119.186H287.042L284.965 124.817H281.904L289.311 105.219H292.372L299.752 124.817H296.664ZM291.798 111.123C291.744 110.922 291.643 110.622 291.498 110.221C291.37 109.802 291.243 109.382 291.115 108.963C290.987 108.526 290.887 108.171 290.814 107.897C290.723 108.262 290.614 108.663 290.486 109.1C290.377 109.519 290.268 109.911 290.158 110.275C290.049 110.622 289.958 110.904 289.885 111.123L287.917 116.617H293.766L291.798 111.123Z" fill="white"/>
<path d="M307.633 116.89L302.74 124.817H299.35L304.845 116.261C304.207 116.043 303.587 115.724 302.986 115.305C302.403 114.867 301.92 114.293 301.537 113.583C301.173 112.854 300.991 111.924 300.991 110.795C300.991 109.027 301.61 107.67 302.849 106.722C304.107 105.774 305.929 105.301 308.316 105.301H314.056V124.817H311.104V116.89H307.633ZM308.398 107.788C307.468 107.788 306.676 107.897 306.02 108.116C305.382 108.335 304.89 108.681 304.544 109.155C304.198 109.61 304.025 110.212 304.025 110.959C304.025 112.07 304.389 112.936 305.118 113.555C305.865 114.157 306.995 114.457 308.507 114.457H311.104V107.788H308.398Z" fill="white"/>
<path d="M333.223 124.817L327.319 108.225H327.209C327.228 108.59 327.255 109.082 327.291 109.701C327.328 110.321 327.355 110.986 327.373 111.697C327.392 112.407 327.401 113.109 327.401 113.801V124.817H324.722V105.301H328.931L334.535 120.963H334.644L340.411 105.301H344.621V124.817H341.751V113.637C341.751 113 341.76 112.344 341.778 111.669C341.814 110.977 341.842 110.33 341.86 109.729C341.896 109.127 341.924 108.635 341.942 108.253H341.833L335.765 124.817H333.223Z" fill="white"/>
<path d="M361.156 124.817L359.079 119.186H351.535L349.458 124.817H346.396L353.804 105.219H356.865L364.245 124.817H361.156ZM356.291 111.123C356.236 110.922 356.136 110.622 355.99 110.221C355.863 109.802 355.735 109.382 355.608 108.963C355.48 108.526 355.38 108.171 355.307 107.897C355.216 108.262 355.107 108.663 354.979 109.1C354.87 109.519 354.76 109.911 354.651 110.275C354.542 110.622 354.451 110.904 354.378 111.123L352.41 116.617H358.259L356.291 111.123Z" fill="white"/>
<path d="M374.394 107.569C373.428 107.569 372.563 107.742 371.797 108.089C371.032 108.417 370.376 108.909 369.829 109.565C369.301 110.221 368.891 111.013 368.599 111.943C368.326 112.872 368.189 113.92 368.189 115.086C368.189 116.617 368.417 117.947 368.873 119.077C369.328 120.188 370.011 121.045 370.923 121.646C371.834 122.247 372.982 122.548 374.367 122.548C375.205 122.548 376.007 122.475 376.772 122.329C377.555 122.165 378.348 121.956 379.15 121.701V124.243C378.385 124.534 377.601 124.744 376.799 124.871C375.997 125.017 375.068 125.09 374.011 125.09C372.025 125.09 370.367 124.68 369.037 123.86C367.725 123.04 366.741 121.874 366.085 120.361C365.429 118.849 365.101 117.081 365.101 115.059C365.101 113.583 365.301 112.234 365.702 111.013C366.121 109.774 366.722 108.708 367.506 107.815C368.289 106.922 369.255 106.239 370.403 105.765C371.569 105.273 372.909 105.027 374.421 105.027C375.405 105.027 376.371 105.137 377.319 105.355C378.266 105.556 379.123 105.847 379.888 106.23L378.795 108.69C378.157 108.398 377.464 108.143 376.717 107.925C375.988 107.688 375.214 107.569 374.394 107.569Z" fill="white"/>
<path d="M389.094 124.817H386.142V107.843H380.293V105.301H394.943V107.843H389.094V124.817Z" fill="white"/>
<path d="M408.104 124.817H397.116V105.301H408.104V107.815H400.068V113.391H407.612V115.879H400.068V122.275H408.104V124.817Z" fill="white"/>
<path d="M416.977 105.301C419.528 105.301 421.387 105.82 422.553 106.859C423.72 107.879 424.303 109.31 424.303 111.15C424.303 111.97 424.166 112.754 423.893 113.501C423.638 114.248 423.209 114.922 422.608 115.523C422.007 116.106 421.205 116.571 420.203 116.917C419.219 117.245 418.007 117.409 416.567 117.409H414.463V124.817H411.511V105.301H416.977ZM416.759 107.788H414.463V114.922H416.239C417.351 114.922 418.28 114.804 419.027 114.567C419.774 114.312 420.33 113.92 420.695 113.391C421.077 112.845 421.269 112.134 421.269 111.259C421.269 110.093 420.904 109.228 420.175 108.663C419.465 108.08 418.326 107.788 416.759 107.788Z" fill="white"/>
<path d="M435.764 107.569C434.798 107.569 433.932 107.742 433.167 108.089C432.402 108.417 431.746 108.909 431.199 109.565C430.671 110.221 430.261 111.013 429.969 111.943C429.696 112.872 429.559 113.92 429.559 115.086C429.559 116.617 429.787 117.947 430.242 119.077C430.698 120.188 431.381 121.045 432.292 121.646C433.203 122.247 434.351 122.548 435.736 122.548C436.575 122.548 437.376 122.475 438.142 122.329C438.925 122.165 439.718 121.956 440.52 121.701V124.243C439.754 124.534 438.971 124.744 438.169 124.871C437.367 125.017 436.438 125.09 435.381 125.09C433.395 125.09 431.737 124.68 430.406 123.86C429.094 123.04 428.11 121.874 427.454 120.361C426.798 118.849 426.47 117.081 426.47 115.059C426.47 113.583 426.671 112.234 427.072 111.013C427.491 109.774 428.092 108.708 428.876 107.815C429.659 106.922 430.625 106.239 431.773 105.765C432.939 105.273 434.279 105.027 435.791 105.027C436.775 105.027 437.741 105.137 438.688 105.355C439.636 105.556 440.492 105.847 441.258 106.23L440.164 108.69C439.527 108.398 438.834 108.143 438.087 107.925C437.358 107.688 436.584 107.569 435.764 107.569Z" fill="white"/>
<path d="M458.637 124.817H455.165L446.856 114.922V124.817H443.904V105.301H446.856V114.758L455.001 105.301H458.254L450.191 114.758L458.637 124.817Z" fill="white"/>
<path d="M472.571 124.817L470.493 119.186H462.949L460.872 124.817H457.811L465.218 105.219H468.279L475.659 124.817H472.571ZM467.705 111.123C467.651 110.922 467.551 110.622 467.405 110.221C467.277 109.802 467.15 109.382 467.022 108.963C466.895 108.526 466.794 108.171 466.721 107.897C466.63 108.262 466.521 108.663 466.393 109.1C466.284 109.519 466.175 109.911 466.065 110.275C465.956 110.622 465.865 110.904 465.792 111.123L463.824 116.617H469.673L467.705 111.123Z" fill="white"/>
<path d="M483.54 116.89L478.647 124.817H475.258L480.752 116.261C480.114 116.043 479.494 115.724 478.893 115.305C478.31 114.867 477.827 114.293 477.444 113.583C477.08 112.854 476.898 111.924 476.898 110.795C476.898 109.027 477.517 107.67 478.756 106.722C480.014 105.774 481.836 105.301 484.223 105.301H489.963V124.817H487.011V116.89H483.54ZM484.305 107.788C483.376 107.788 482.583 107.897 481.927 108.116C481.289 108.335 480.797 108.681 480.451 109.155C480.105 109.61 479.932 110.212 479.932 110.959C479.932 112.07 480.296 112.936 481.025 113.555C481.772 114.157 482.902 114.457 484.414 114.457H487.011V107.788H484.305Z" fill="white"/>
</svg>
